<?xml version="1.0" encoding="UTF-8" standalone="no"?>
<!DOCTYPE svg PUBLIC "-//W3C//DTD SVG 1.1//EN"
"http://www.w3.org/Graphics/SVG/1.1/DTD/svg11.dtd">
<svg viewBox="0 0 909 1286" version="1.1" xmlns="http://www.w3.org/2000/svg" xmlns:xlink="http://www.w3.org/1999/xlink">
<defs>
<style type="text/css"><![CDATA[
.g0_1{
fill: #FFFFFF;
}
.g1_1{
fill: #D3D3D3;
}
.g2_1{
fill: #479099;
}
.g3_1{
fill: #B2B2B2;
}
]]></style>
</defs>
<path d="M0,0H908.8V1283.7H0V0Z" class="g0_1" />
<image preserveAspectRatio="none" x="39" y="34" width="121" height="121" xlink:href="img/1.png" />
<path fill-rule="evenodd" d="M99.2,33.5c33.7,0,61.1,27.4,61.1,61.1c0,33.7,-27.4,61.1,-61.1,61.1C65.4,155.7,38.1,128.3,38.1,94.6C38.1,60.9,65.4,33.5,99.2,33.5Zm0,.7c33.3,0,60.4,27.1,60.4,60.4C159.6,128,132.5,155,99.2,155C65.8,155,38.8,128,38.8,94.6c0,-33.3,27,-60.4,60.4,-60.4Z" class="g1_1" />
<path d="M0,182.2H908.8v42.3H0V182.2Z" class="g2_1" />
<path d="M77.3,205.5l-1.8,-1.6l-5.3,4.5c.2,.2,.4,.3,.7,.3H83.8c.2,0,.5,-.1,.7,-.3l-5.3,-4.5l-1.9,1.6Z" class="g0_1" />
<path d="M84.5,198.3c-.2,-.2,-.5,-.3,-.7,-.3H70.9c-.3,0,-.5,.1,-.7,.3l7.1,6.1l7.2,-6.1Z" class="g0_1" />
<path d="M69.8,198.9v9L75,203.5l-5.2,-4.6Z" class="g0_1" />
<path d="M79.7,203.5l5.1,4.4v-9l-5.1,4.6Z" class="g0_1" />
<path d="M283.5,210.9h6.7c.3,0,.6,-.3,.6,-.7V196.5c0,-.3,-.3,-.6,-.6,-.6h-6.7c-.4,0,-.7,.3,-.7,.6v13.7c0,.4,.3,.7,.7,.7Zm3.3,-.5c-.5,0,-.9,-.4,-.9,-1c0,-.5,.4,-.9,.9,-.9c.5,0,1,.4,1,.9c0,.6,-.5,1,-1,1Zm-3.1,-12.8h6.2V208h-6.2V197.6Z" class="g0_1" />
<path d="M435.4,197.4c-1,-1,-2.3,-1.5,-3.7,-1.5c-1.4,0,-2.7,.5,-3.7,1.5c-1.9,1.8,-2.1,5.3,-.5,7.4l4.2,6.1l4.2,-6.1c1.6,-2.1,1.4,-5.6,-.5,-7.4Zm-3.6,6.4c-1.5,0,-2.8,-1.2,-2.8,-2.7c0,-1.5,1.3,-2.8,2.8,-2.8c1.5,0,2.7,1.3,2.7,2.8c0,1.5,-1.2,2.7,-2.7,2.7Z" class="g0_1" />
<path d="M566.4,199.8h2.8v8.4h-2.8v-8.4Z" class="g0_1" />
<path d="M567.8,195.7c-1,0,-1.6,.6,-1.6,1.5c0,.8,.6,1.4,1.5,1.4h.1c.9,0,1.6,-.6,1.6,-1.4c-.1,-.9,-.7,-1.5,-1.6,-1.5Z" class="g0_1" />
<path d="M576.1,199.6c-1.5,0,-2.2,.8,-2.6,1.4v-1.2h-2.8c.1,.8,0,8.4,0,8.4h2.8v-4.7c0,-.2,.1,-.5,.1,-.7c.2,-.5,.7,-1,1.5,-1c1,0,1.4,.8,1.4,1.9v4.5h2.8v-4.8c0,-2.6,-1.4,-3.8,-3.2,-3.8Z" class="g0_1" />
<path d="M0,283.1H18.2v1.4H0v-1.4Z" class="g2_1" />
<path d="M41,362.5c.9,0,1.5,.6,1.5,1.5c0,.8,-.6,1.5,-1.5,1.5c-.8,0,-1.5,-.7,-1.5,-1.5c0,-.9,.7,-1.5,1.5,-1.5ZM41,361c-1.6,0,-2.9,1.3,-2.9,3c0,1.6,1.3,2.9,2.9,2.9c1.7,0,3,-1.3,3,-2.9c0,-1.7,-1.3,-3,-3,-3Z" class="g2_1" />
<path d="M41,385.2c.9,0,1.5,.6,1.5,1.5c0,.8,-.6,1.4,-1.5,1.4c-.8,0,-1.5,-.6,-1.5,-1.4c0,-.9,.7,-1.5,1.5,-1.5Zm0,-1.5c-1.6,0,-2.9,1.3,-2.9,3c0,1.6,1.3,2.9,2.9,2.9c1.7,0,3,-1.3,3,-2.9c0,-1.7,-1.3,-3,-3,-3Z" class="g2_1" />
<path d="M41,407.9c.9,0,1.5,.6,1.5,1.5c0,.8,-.6,1.4,-1.5,1.4c-.8,0,-1.5,-.6,-1.5,-1.4c0,-.9,.7,-1.5,1.5,-1.5Zm0,-1.5c-1.6,0,-2.9,1.3,-2.9,3c0,1.6,1.3,2.9,2.9,2.9c1.7,0,3,-1.3,3,-2.9c0,-1.7,-1.3,-3,-3,-3Z" class="g2_1" />
<path d="M41,430.6c.9,0,1.5,.6,1.5,1.5c0,.8,-.6,1.4,-1.5,1.4c-.8,0,-1.5,-.6,-1.5,-1.4c0,-.9,.7,-1.5,1.5,-1.5Zm0,-1.5c-1.6,0,-2.9,1.3,-2.9,3c0,1.6,1.3,2.9,2.9,2.9c1.7,0,3,-1.3,3,-2.9c0,-1.7,-1.3,-3,-3,-3Z" class="g2_1" />
<path d="M0,479H18.2v1.4H0V479Z" class="g2_1" />
<path d="M41,558.3c.9,0,1.5,.7,1.5,1.5c0,.9,-.6,1.5,-1.5,1.5c-.8,0,-1.5,-.6,-1.5,-1.5c0,-.8,.7,-1.5,1.5,-1.5Zm0,-1.4c-1.6,0,-2.9,1.3,-2.9,2.9c0,1.7,1.3,3,2.9,3c1.7,0,3,-1.3,3,-3c0,-1.6,-1.3,-2.9,-3,-2.9Z" class="g2_1" />
<path d="M41,581c.9,0,1.5,.7,1.5,1.5c0,.9,-.6,1.5,-1.5,1.5c-.8,0,-1.5,-.6,-1.5,-1.5c0,-.8,.7,-1.5,1.5,-1.5Zm0,-1.4c-1.6,0,-2.9,1.3,-2.9,2.9c0,1.7,1.3,3,2.9,3c1.7,0,3,-1.3,3,-3c0,-1.6,-1.3,-2.9,-3,-2.9Z" class="g2_1" />
<path d="M41,603.7c.9,0,1.5,.7,1.5,1.5c0,.9,-.6,1.5,-1.5,1.5c-.8,0,-1.5,-.6,-1.5,-1.5c0,-.8,.7,-1.5,1.5,-1.5Zm0,-1.4c-1.6,0,-2.9,1.3,-2.9,2.9c0,1.7,1.3,3,2.9,3c1.7,0,3,-1.3,3,-3c0,-1.6,-1.3,-2.9,-3,-2.9Z" class="g2_1" />
<path d="M0,665.8H18.2v1.4H0v-1.4Z" class="g2_1" />
<path d="M41,745.1c.9,0,1.5,.7,1.5,1.5c0,.8,-.6,1.5,-1.5,1.5c-.8,0,-1.5,-.7,-1.5,-1.5c0,-.8,.7,-1.5,1.5,-1.5Zm0,-1.4c-1.6,0,-2.9,1.3,-2.9,2.9c0,1.7,1.3,3,2.9,3c1.7,0,3,-1.3,3,-3c0,-1.6,-1.3,-2.9,-3,-2.9Z" class="g2_1" />
<path d="M244.2,764.6h-.4c-.1,0,-.2,0,-.2,0c0,0,-.1,.1,-.1,.2v2c0,.3,-.1,.6,-.3,.8c-.2,.2,-.4,.3,-.7,.3h-5.4c-.3,0,-.5,-.1,-.7,-.3c-.2,-.2,-.3,-.5,-.3,-.8v-5.3c0,-.3,.1,-.6,.3,-.8c.2,-.2,.5,-.3,.7,-.3h4.6c0,0,.1,0,.1,0c.1,0,.1,-.1,.1,-.2v-.4c0,0,0,-.1,-.1,-.1q0,-.1,-.1,-.1h-4.6c-.5,0,-.9,.2,-1.3,.5c-.3,.4,-.5,.8,-.5,1.4v5.3c0,.5,.2,1,.5,1.3c.4,.4,.8,.6,1.3,.6h5.4c.5,0,1,-.2,1.3,-.6c.4,-.3,.6,-.8,.6,-1.3v-2q0,-.1,-.1,-.2c0,0,-.1,0,-.1,0Z" class="g2_1" />
<path d="M246.7,758.9c-.1,-.1,-.2,-.1,-.3,-.1h-3.3c-.1,0,-.2,0,-.3,.1c-.1,.1,-.1,.2,-.1,.3c0,.1,0,.2,.1,.3l1.1,1.1l-4.1,4.2q-.1,.1,-.1,.2c0,0,0,.1,.1,.2l.7,.7q.1,0,.2,0c0,0,.1,0,.1,0l4.2,-4.2l1.1,1.1c.1,.1,.2,.1,.3,.1c.1,0,.2,0,.3,-.1c.1,-.1,.2,-.2,.2,-.3v-3.3c-.1,-.1,-.1,-.2,-.2,-.3Z" class="g2_1" />
<path d="M41,784.6c.9,0,1.5,.6,1.5,1.5c0,.8,-.6,1.5,-1.5,1.5c-.8,0,-1.5,-.7,-1.5,-1.5c0,-.9,.7,-1.5,1.5,-1.5Zm0,-1.5c-1.6,0,-2.9,1.3,-2.9,3c0,1.6,1.3,2.9,2.9,2.9c1.7,0,3,-1.3,3,-2.9c0,-1.7,-1.3,-3,-3,-3Z" class="g2_1" />
<path d="M372.3,804h-.4q-.1,0,-.2,.1v2.2c0,.3,-.1,.5,-.3,.7c-.2,.2,-.5,.3,-.8,.3h-5.3c-.3,0,-.6,-.1,-.8,-.3c-.2,-.2,-.2,-.4,-.2,-.7v-5.4c0,-.3,.1,-.5,.2,-.7c.3,-.2,.5,-.3,.8,-.3h4.5q.1,0,.2,-.1v-.5q0,-.1,0,-.2c0,0,-.1,0,-.2,0h-4.5c-.5,0,-1,.1,-1.3,.5c-.4,.4,-.6,.8,-.6,1.3v5.4c0,.5,.2,.9,.6,1.3c.3,.4,.8,.5,1.3,.5h5.4c.5,0,.9,-.2,1.3,-.5c.3,-.4,.5,-.8,.5,-1.3v-2.1c0,0,0,-.1,-.1,-.1c0,-.1,-.1,-.1,-.1,-.1Z" class="g2_1" />
<path d="M374.9,798.4c-.1,-.1,-.2,-.2,-.3,-.2h-3.4c-.1,0,-.2,.1,-.2,.2c-.1,0,-.2,.2,-.2,.3c0,.1,.1,.2,.2,.3l1.1,1.1l-4.2,4.2c-.1,0,-.1,.1,-.1,.1c0,.1,.1,.1,.1,.2l.7,.7q.1,.1,.2,.1c0,0,.1,0,.2,-.1l4.1,-4.2l1.2,1.2c.1,0,.2,.1,.3,.1c.1,0,.2,-.1,.3,-.1c0,-.1,.1,-.2,.1,-.3v-3.3c0,-.2,-.1,-.3,-.1,-.3Z" class="g2_1" />
<path d="M41,824c.9,0,1.5,.7,1.5,1.5c0,.9,-.6,1.5,-1.5,1.5c-.8,0,-1.5,-.6,-1.5,-1.5c0,-.8,.7,-1.5,1.5,-1.5Zm0,-1.4c-1.6,0,-2.9,1.3,-2.9,2.9c0,1.7,1.3,3,2.9,3c1.7,0,3,-1.3,3,-3c0,-1.6,-1.3,-2.9,-3,-2.9Z" class="g2_1" />
<path d="M0,931.5H18.2v1.4H0v-1.4Z" class="g2_1" />
<path d="M303.5,955.5h-.4c0,0,-.1,.1,-.2,.1c0,0,0,.1,0,.2v2c0,.3,-.1,.6,-.3,.7c-.2,.3,-.5,.3,-.7,.3h-5.4c-.3,0,-.5,-.1,-.7,-.3c-.2,-.2,-.3,-.4,-.3,-.7v-5.4c0,-.3,.1,-.5,.3,-.7c.2,-.2,.4,-.3,.7,-.3H301q.1,0,.2,0c0,-.1,.1,-.1,.1,-.2v-.4c0,-.1,-.1,-.1,-.1,-.2c0,0,-.1,0,-.2,0h-4.5c-.5,0,-.9,.2,-1.3,.5c-.4,.4,-.5,.8,-.5,1.3v5.4c0,.5,.1,.9,.5,1.3c.4,.4,.8,.6,1.3,.6h5.4c.5,0,.9,-.2,1.3,-.6c.4,-.4,.5,-.8,.5,-1.3v-2.1c0,0,0,-.1,0,-.1c-.1,0,-.1,-.1,-.2,-.1Z" class="g2_1" />
<path d="M306.1,949.9c-.1,-.1,-.2,-.1,-.3,-.1h-3.3c-.1,0,-.2,0,-.3,.1c-.1,.1,-.2,.2,-.2,.3c0,.1,.1,.2,.2,.3l1.1,1.1l-4.2,4.2q0,.1,0,.2c0,0,0,.1,0,.1l.7,.8q.1,0,.2,0q.1,0,.2,0l4.2,-4.2l1.1,1.1c.1,.1,.2,.1,.3,.1c.1,0,.2,0,.3,-.1c.1,-.1,.1,-.2,.1,-.3v-3.3q0,-.2,-.1,-.3Z" class="g2_1" />
<path d="M41,1010.8c.9,0,1.5,.7,1.5,1.5c0,.8,-.6,1.5,-1.5,1.5c-.8,0,-1.5,-.7,-1.5,-1.5c0,-.8,.7,-1.5,1.5,-1.5Zm0,-1.5c-1.6,0,-2.9,1.3,-2.9,3c0,1.7,1.3,3,2.9,3c1.7,0,3,-1.3,3,-3c0,-1.7,-1.3,-3,-3,-3Z" class="g2_1" />
<path d="M0,1109.5H18.2v1.4H0v-1.4Z" class="g2_1" />
<path d="M413.1,1133.6h-.4c0,0,-.1,0,-.1,0q-.1,.1,-.1,.2v2.1c0,.3,-.1,.5,-.3,.7c-.2,.2,-.4,.3,-.7,.3h-5.4c-.3,0,-.5,-.1,-.7,-.3c-.2,-.2,-.3,-.5,-.3,-.7v-5.4c0,-.3,.1,-.5,.3,-.7c.2,-.2,.5,-.3,.7,-.3h4.6c0,0,.1,0,.1,-.1c.1,0,.1,-.1,.1,-.1v-.4q0,-.1,-.1,-.2c0,0,-.1,-.1,-.1,-.1h-4.6c-.5,0,-.9,.2,-1.3,.6c-.4,.3,-.5,.8,-.5,1.3v5.4c0,.5,.2,.9,.5,1.3c.4,.3,.8,.5,1.3,.5h5.4c.5,0,.9,-.2,1.3,-.5c.4,-.4,.6,-.8,.6,-1.3v-2.1c0,-.1,-.1,-.1,-.1,-.2q-.1,0,-.2,0Z" class="g2_1" />
<path d="M415.7,1127.9c-.1,0,-.2,-.1,-.3,-.1h-3.3c-.1,0,-.2,.1,-.3,.1c-.1,.1,-.1,.2,-.1,.3c0,.1,0,.2,.1,.3l1.1,1.2l-4.1,4.2q-.1,0,-.1,.1q0,.1,.1,.2l.7,.7c0,.1,.1,.1,.1,.1c.1,0,.1,-.1,.2,-.1l4.2,-4.2l1.1,1.1c.1,.1,.2,.2,.3,.2c.1,0,.2,-.1,.3,-.2c.1,0,.1,-.1,.1,-.3v-3.3c0,-.1,0,-.2,-.1,-.3Z" class="g2_1" />
<path fill-rule="evenodd" d="M699,275.8c5,0,9,4.1,9,9.1c0,5,-4,9.1,-9,9.1c-5,0,-9.1,-4.1,-9.1,-9.1c0,-5,4.1,-9.1,9.1,-9.1Z" class="g2_1" />
<path fill-rule="evenodd" d="M738.4,275.8c5,0,9.1,4.1,9.1,9.1c0,5,-4.1,9.1,-9.1,9.1c-5,0,-9.1,-4.1,-9.1,-9.1c0,-5,4.1,-9.1,9.1,-9.1Z" class="g2_1" />
<path fill-rule="evenodd" d="M777.9,275.8c5,0,9,4.1,9,9.1c0,5,-4,9.1,-9,9.1c-5,0,-9.1,-4.1,-9.1,-9.1c0,-5,4.1,-9.1,9.1,-9.1Z" class="g2_1" />
<path fill-rule="evenodd" d="M817.3,275.8c5,0,9.1,4.1,9.1,9.1c0,5,-4.1,9.1,-9.1,9.1c-5,0,-9.1,-4.1,-9.1,-9.1c0,-5,4.1,-9.1,9.1,-9.1Z" class="g2_1" />
<path fill-rule="evenodd" d="M856.8,276.5c4.6,0,8.3,3.8,8.3,8.4c0,4.6,-3.7,8.4,-8.3,8.4c-4.7,0,-8.4,-3.8,-8.4,-8.4c0,-4.6,3.7,-8.4,8.4,-8.4Z" class="g0_1" />
<path fill-rule="evenodd" d="M856.8,275.8c5,0,9,4.1,9,9.1c0,5,-4,9.1,-9,9.1c-5,0,-9.1,-4.1,-9.1,-9.1c0,-5,4.1,-9.1,9.1,-9.1Zm0,1.4c4.2,0,7.7,3.5,7.7,7.7c0,4.2,-3.5,7.7,-7.7,7.7c-4.3,0,-7.7,-3.5,-7.7,-7.7c0,-4.2,3.4,-7.7,7.7,-7.7Z" class="g2_1" />
<path fill-rule="evenodd" d="M699,313.9c5,0,9,4,9,9c0,5.1,-4,9.1,-9,9.1c-5,0,-9.1,-4,-9.1,-9.1c0,-5,4.1,-9,9.1,-9Z" class="g2_1" />
<path fill-rule="evenodd" d="M738.4,313.9c5,0,9.1,4,9.1,9c0,5.1,-4.1,9.1,-9.1,9.1c-5,0,-9.1,-4,-9.1,-9.1c0,-5,4.1,-9,9.1,-9Z" class="g2_1" />
<path fill-rule="evenodd" d="M777.9,313.9c5,0,9,4,9,9c0,5.1,-4,9.1,-9,9.1c-5,0,-9.1,-4,-9.1,-9.1c0,-5,4.1,-9,9.1,-9Z" class="g2_1" />
<path fill-rule="evenodd" d="M817.3,313.9c5,0,9.1,4,9.1,9c0,5.1,-4.1,9.1,-9.1,9.1c-5,0,-9.1,-4,-9.1,-9.1c0,-5,4.1,-9,9.1,-9Z" class="g2_1" />
<path fill-rule="evenodd" d="M856.8,313.9c5,0,9,4,9,9c0,5.1,-4,9.1,-9,9.1c-5,0,-9.1,-4,-9.1,-9.1c0,-5,4.1,-9,9.1,-9Z" class="g2_1" />
<path fill-rule="evenodd" d="M699,351.9c5,0,9,4.1,9,9.1c0,5,-4,9.1,-9,9.1c-5,0,-9.1,-4.1,-9.1,-9.1c0,-5,4.1,-9.1,9.1,-9.1Z" class="g2_1" />
<path fill-rule="evenodd" d="M738.4,351.9c5,0,9.1,4.1,9.1,9.1c0,5,-4.1,9.1,-9.1,9.1c-5,0,-9.1,-4.1,-9.1,-9.1c0,-5,4.1,-9.1,9.1,-9.1Z" class="g2_1" />
<path fill-rule="evenodd" d="M777.9,351.9c5,0,9,4.1,9,9.1c0,5,-4,9.1,-9,9.1c-5,0,-9.1,-4.1,-9.1,-9.1c0,-5,4.1,-9.1,9.1,-9.1Z" class="g2_1" />
<path fill-rule="evenodd" d="M817.3,352.6c4.6,0,8.4,3.8,8.4,8.4c0,4.6,-3.8,8.4,-8.4,8.4c-4.6,0,-8.4,-3.8,-8.4,-8.4c0,-4.6,3.8,-8.4,8.4,-8.4Z" class="g0_1" />
<path fill-rule="evenodd" d="M817.3,351.9c5,0,9.1,4.1,9.1,9.1c0,5,-4.1,9.1,-9.1,9.1c-5,0,-9.1,-4.1,-9.1,-9.1c0,-5,4.1,-9.1,9.1,-9.1Zm0,1.4c4.3,0,7.7,3.5,7.7,7.7c0,4.2,-3.4,7.7,-7.7,7.7c-4.2,0,-7.7,-3.5,-7.7,-7.7c0,-4.2,3.5,-7.7,7.7,-7.7Z" class="g2_1" />
<path fill-rule="evenodd" d="M856.8,352.6c4.6,0,8.3,3.8,8.3,8.4c0,4.6,-3.7,8.4,-8.3,8.4c-4.7,0,-8.4,-3.8,-8.4,-8.4c0,-4.6,3.7,-8.4,8.4,-8.4Z" class="g0_1" />
<path fill-rule="evenodd" d="M856.8,351.9c5,0,9,4.1,9,9.1c0,5,-4,9.1,-9,9.1c-5,0,-9.1,-4.1,-9.1,-9.1c0,-5,4.1,-9.1,9.1,-9.1Zm0,1.4c4.2,0,7.7,3.5,7.7,7.7c0,4.2,-3.5,7.7,-7.7,7.7c-4.3,0,-7.7,-3.5,-7.7,-7.7c0,-4.2,3.4,-7.7,7.7,-7.7Z" class="g2_1" />
<path fill-rule="evenodd" d="M699,390c5,0,9,4,9,9.1c0,5,-4,9,-9,9c-5,0,-9.1,-4,-9.1,-9c0,-5.1,4.1,-9.1,9.1,-9.1Z" class="g2_1" />
<path fill-rule="evenodd" d="M738.4,390c5,0,9.1,4,9.1,9.1c0,5,-4.1,9,-9.1,9c-5,0,-9.1,-4,-9.1,-9c0,-5.1,4.1,-9.1,9.1,-9.1Z" class="g2_1" />
<path fill-rule="evenodd" d="M777.9,390c5,0,9,4,9,9.1c0,5,-4,9,-9,9c-5,0,-9.1,-4,-9.1,-9c0,-5.1,4.1,-9.1,9.1,-9.1Z" class="g2_1" />
<path fill-rule="evenodd" d="M817.3,390c5,0,9.1,4,9.1,9.1c0,5,-4.1,9,-9.1,9c-5,0,-9.1,-4,-9.1,-9c0,-5.1,4.1,-9.1,9.1,-9.1Z" class="g2_1" />
<path fill-rule="evenodd" d="M856.8,390.7c4.6,0,8.3,3.7,8.3,8.4c0,4.6,-3.7,8.3,-8.3,8.3c-4.7,0,-8.4,-3.7,-8.4,-8.3c0,-4.7,3.7,-8.4,8.4,-8.4Z" class="g0_1" />
<path fill-rule="evenodd" d="M856.8,390c5,0,9,4,9,9.1c0,5,-4,9,-9,9c-5,0,-9.1,-4,-9.1,-9c0,-5.1,4.1,-9.1,9.1,-9.1Zm0,1.4c4.2,0,7.7,3.4,7.7,7.7c0,4.2,-3.5,7.6,-7.7,7.6c-4.3,0,-7.7,-3.4,-7.7,-7.6c0,-4.3,3.4,-7.7,7.7,-7.7Z" class="g2_1" />
<path fill-rule="evenodd" d="M699,428c5,0,9,4.1,9,9.1c0,5,-4,9.1,-9,9.1c-5,0,-9.1,-4.1,-9.1,-9.1c0,-5,4.1,-9.1,9.1,-9.1Z" class="g2_1" />
<path fill-rule="evenodd" d="M738.4,428c5,0,9.1,4.1,9.1,9.1c0,5,-4.1,9.1,-9.1,9.1c-5,0,-9.1,-4.1,-9.1,-9.1c0,-5,4.1,-9.1,9.1,-9.1Z" class="g2_1" />
<path fill-rule="evenodd" d="M777.9,428c5,0,9,4.1,9,9.1c0,5,-4,9.1,-9,9.1c-5,0,-9.1,-4.1,-9.1,-9.1c0,-5,4.1,-9.1,9.1,-9.1Z" class="g2_1" />
<path fill-rule="evenodd" d="M817.3,428c5,0,9.1,4.1,9.1,9.1c0,5,-4.1,9.1,-9.1,9.1c-5,0,-9.1,-4.1,-9.1,-9.1c0,-5,4.1,-9.1,9.1,-9.1Z" class="g2_1" />
<path fill-rule="evenodd" d="M856.8,428.7c4.6,0,8.3,3.8,8.3,8.4c0,4.6,-3.7,8.4,-8.3,8.4c-4.7,0,-8.4,-3.8,-8.4,-8.4c0,-4.6,3.7,-8.4,8.4,-8.4Z" class="g0_1" />
<path fill-rule="evenodd" d="M856.8,428c5,0,9,4.1,9,9.1c0,5,-4,9.1,-9,9.1c-5,0,-9.1,-4.1,-9.1,-9.1c0,-5,4.1,-9.1,9.1,-9.1Zm0,1.4c4.2,0,7.7,3.5,7.7,7.7c0,4.3,-3.5,7.7,-7.7,7.7c-4.3,0,-7.7,-3.4,-7.7,-7.7c0,-4.2,3.4,-7.7,7.7,-7.7Z" class="g2_1" />
<path fill-rule="evenodd" d="M699,466.1c5,0,9,4.1,9,9.1c0,5,-4,9,-9,9c-5,0,-9.1,-4,-9.1,-9c0,-5,4.1,-9.1,9.1,-9.1Z" class="g2_1" />
<path fill-rule="evenodd" d="M738.4,466.1c5,0,9.1,4.1,9.1,9.1c0,5,-4.1,9,-9.1,9c-5,0,-9.1,-4,-9.1,-9c0,-5,4.1,-9.1,9.1,-9.1Z" class="g2_1" />
<path fill-rule="evenodd" d="M777.9,466.1c5,0,9,4.1,9,9.1c0,5,-4,9,-9,9c-5,0,-9.1,-4,-9.1,-9c0,-5,4.1,-9.1,9.1,-9.1Z" class="g2_1" />
<path fill-rule="evenodd" d="M817.3,466.8c4.6,0,8.4,3.7,8.4,8.4c0,4.6,-3.8,8.3,-8.4,8.3c-4.6,0,-8.4,-3.7,-8.4,-8.3c0,-4.7,3.8,-8.4,8.4,-8.4Z" class="g0_1" />
<path fill-rule="evenodd" d="M817.3,466.1c5,0,9.1,4.1,9.1,9.1c0,5,-4.1,9,-9.1,9c-5,0,-9.1,-4,-9.1,-9c0,-5,4.1,-9.1,9.1,-9.1Zm0,1.4c4.3,0,7.7,3.4,7.7,7.7c0,4.2,-3.4,7.6,-7.7,7.6c-4.2,0,-7.7,-3.4,-7.7,-7.6c0,-4.3,3.5,-7.7,7.7,-7.7Z" class="g2_1" />
<path fill-rule="evenodd" d="M856.8,466.8c4.6,0,8.3,3.7,8.3,8.4c0,4.6,-3.7,8.3,-8.3,8.3c-4.7,0,-8.4,-3.7,-8.4,-8.3c0,-4.7,3.7,-8.4,8.4,-8.4Z" class="g0_1" />
<path fill-rule="evenodd" d="M856.8,466.1c5,0,9,4.1,9,9.1c0,5,-4,9,-9,9c-5,0,-9.1,-4,-9.1,-9c0,-5,4.1,-9.1,9.1,-9.1Zm0,1.4c4.2,0,7.7,3.4,7.7,7.7c0,4.2,-3.5,7.6,-7.7,7.6c-4.3,0,-7.7,-3.4,-7.7,-7.6c0,-4.3,3.4,-7.7,7.7,-7.7Z" class="g2_1" />
<path fill-rule="evenodd" d="M699,504.1c5,0,9,4.1,9,9.1c0,5,-4,9.1,-9,9.1c-5,0,-9.1,-4.1,-9.1,-9.1c0,-5,4.1,-9.1,9.1,-9.1Z" class="g2_1" />
<path fill-rule="evenodd" d="M738.4,504.1c5,0,9.1,4.1,9.1,9.1c0,5,-4.1,9.1,-9.1,9.1c-5,0,-9.1,-4.1,-9.1,-9.1c0,-5,4.1,-9.1,9.1,-9.1Z" class="g2_1" />
<path fill-rule="evenodd" d="M777.9,504.1c5,0,9,4.1,9,9.1c0,5,-4,9.1,-9,9.1c-5,0,-9.1,-4.1,-9.1,-9.1c0,-5,4.1,-9.1,9.1,-9.1Z" class="g2_1" />
<path fill-rule="evenodd" d="M817.3,504.1c5,0,9.1,4.1,9.1,9.1c0,5,-4.1,9.1,-9.1,9.1c-5,0,-9.1,-4.1,-9.1,-9.1c0,-5,4.1,-9.1,9.1,-9.1Z" class="g2_1" />
<path fill-rule="evenodd" d="M856.8,504.8c4.6,0,8.3,3.8,8.3,8.4c0,4.6,-3.7,8.4,-8.3,8.4c-4.7,0,-8.4,-3.8,-8.4,-8.4c0,-4.6,3.7,-8.4,8.4,-8.4Z" class="g0_1" />
<path fill-rule="evenodd" d="M856.8,504.1c5,0,9,4.1,9,9.1c0,5,-4,9.1,-9,9.1c-5,0,-9.1,-4.1,-9.1,-9.1c0,-5,4.1,-9.1,9.1,-9.1Zm0,1.4c4.2,0,7.7,3.5,7.7,7.7c0,4.3,-3.5,7.7,-7.7,7.7c-4.3,0,-7.7,-3.4,-7.7,-7.7c0,-4.2,3.4,-7.7,7.7,-7.7Z" class="g2_1" />
<path fill-rule="evenodd" d="M698.6,542.2c5,0,9.1,4.1,9.1,9.1c0,5,-4.1,9.1,-9.1,9.1c-5,0,-9.1,-4.1,-9.1,-9.1c0,-5,4.1,-9.1,9.1,-9.1Z" class="g2_1" />
<path fill-rule="evenodd" d="M738.1,542.2c5,0,9,4.1,9,9.1c0,5,-4,9.1,-9,9.1c-5,0,-9.1,-4.1,-9.1,-9.1c0,-5,4.1,-9.1,9.1,-9.1Z" class="g2_1" />
<path fill-rule="evenodd" d="M777.5,542.9c4.6,0,8.4,3.8,8.4,8.4c0,4.6,-3.8,8.4,-8.4,8.4c-4.6,0,-8.4,-3.8,-8.4,-8.4c0,-4.6,3.8,-8.4,8.4,-8.4Z" class="g0_1" />
<path fill-rule="evenodd" d="M777.5,542.2c5,0,9.1,4.1,9.1,9.1c0,5,-4.1,9.1,-9.1,9.1c-5,0,-9.1,-4.1,-9.1,-9.1c0,-5,4.1,-9.1,9.1,-9.1Zm0,1.4c4.3,0,7.7,3.4,7.7,7.7c0,4.2,-3.4,7.7,-7.7,7.7c-4.2,0,-7.7,-3.5,-7.7,-7.7c0,-4.3,3.5,-7.7,7.7,-7.7Z" class="g2_1" />
<path fill-rule="evenodd" d="M817,542.9c4.6,0,8.3,3.8,8.3,8.4c0,4.6,-3.7,8.4,-8.3,8.4c-4.7,0,-8.4,-3.8,-8.4,-8.4c0,-4.6,3.7,-8.4,8.4,-8.4Z" class="g0_1" />
<path fill-rule="evenodd" d="M817,542.2c5,0,9,4.1,9,9.1c0,5,-4,9.1,-9,9.1c-5,0,-9.1,-4.1,-9.1,-9.1c0,-5,4.1,-9.1,9.1,-9.1Zm0,1.4c4.2,0,7.6,3.4,7.6,7.7c0,4.2,-3.4,7.7,-7.6,7.7c-4.3,0,-7.7,-3.5,-7.7,-7.7c0,-4.3,3.4,-7.7,7.7,-7.7Z" class="g2_1" />
<path fill-rule="evenodd" d="M856.4,542.9c4.6,0,8.4,3.8,8.4,8.4c0,4.6,-3.8,8.4,-8.4,8.4c-4.6,0,-8.4,-3.8,-8.4,-8.4c0,-4.6,3.8,-8.4,8.4,-8.4Z" class="g0_1" />
<path fill-rule="evenodd" d="M856.4,542.2c5,0,9.1,4.1,9.1,9.1c0,5,-4.1,9.1,-9.1,9.1c-5,0,-9.1,-4.1,-9.1,-9.1c0,-5,4.1,-9.1,9.1,-9.1Zm0,1.4c4.3,0,7.7,3.4,7.7,7.7c0,4.2,-3.4,7.7,-7.7,7.7c-4.2,0,-7.7,-3.5,-7.7,-7.7c0,-4.3,3.5,-7.7,7.7,-7.7Z" class="g2_1" />
<path fill-rule="evenodd" d="M699,580.3c5,0,9,4,9,9c0,5,-4,9.1,-9,9.1c-5,0,-9.1,-4.1,-9.1,-9.1c0,-5,4.1,-9,9.1,-9Z" class="g2_1" />
<path fill-rule="evenodd" d="M738.4,580.3c5,0,9.1,4,9.1,9c0,5,-4.1,9.1,-9.1,9.1c-5,0,-9.1,-4.1,-9.1,-9.1c0,-5,4.1,-9,9.1,-9Z" class="g2_1" />
<path fill-rule="evenodd" d="M777.9,580.3c5,0,9,4,9,9c0,5,-4,9.1,-9,9.1c-5,0,-9.1,-4.1,-9.1,-9.1c0,-5,4.1,-9,9.1,-9Z" class="g2_1" />
<path fill-rule="evenodd" d="M817.3,580.3c5,0,9.1,4,9.1,9c0,5,-4.1,9.1,-9.1,9.1c-5,0,-9.1,-4.1,-9.1,-9.1c0,-5,4.1,-9,9.1,-9Z" class="g2_1" />
<path fill-rule="evenodd" d="M856.8,581c4.6,0,8.3,3.7,8.3,8.3c0,4.7,-3.7,8.4,-8.3,8.4c-4.7,0,-8.4,-3.7,-8.4,-8.4c0,-4.6,3.7,-8.3,8.4,-8.3Z" class="g0_1" />
<path fill-rule="evenodd" d="M856.8,580.3c5,0,9,4,9,9c0,5,-4,9.1,-9,9.1c-5,0,-9.1,-4.1,-9.1,-9.1c0,-5,4.1,-9,9.1,-9Zm0,1.4c4.2,0,7.7,3.4,7.7,7.6c0,4.3,-3.5,7.7,-7.7,7.7c-4.3,0,-7.7,-3.4,-7.7,-7.7c0,-4.2,3.4,-7.6,7.7,-7.6Z" class="g2_1" />
<path d="M739.2,886.8h-.4c0,0,-.1,0,-.1,0c-.1,0,-.1,.1,-.1,.2v2c0,.3,-.1,.6,-.3,.8c-.2,.2,-.4,.3,-.7,.3h-5.4c-.3,0,-.5,-.2,-.7,-.3c-.2,-.3,-.3,-.5,-.3,-.8v-5.3c0,-.3,.1,-.6,.3,-.8c.2,-.2,.4,-.3,.7,-.3h4.6c0,0,.1,0,.1,0c0,0,.1,-.1,.1,-.2V882c0,0,0,-.1,-.1,-.1c0,-.1,-.1,-.1,-.1,-.1h-4.6c-.5,0,-.9,.2,-1.3,.5c-.4,.4,-.5,.8,-.5,1.3V889c0,.5,.2,1,.5,1.3c.4,.4,.8,.6,1.3,.6h5.4c.5,0,.9,-.2,1.3,-.6c.4,-.3,.5,-.8,.5,-1.3v-2q0,-.1,0,-.2q-.1,0,-.2,0Z" class="g2_1" />
<path d="M741.8,881.1c-.1,-.1,-.2,-.1,-.3,-.1h-3.3c-.1,0,-.2,0,-.3,.1c-.1,.1,-.1,.2,-.1,.3c0,.1,0,.2,.1,.3l1.1,1.1l-4.2,4.2q0,.1,0,.2c0,0,0,.1,0,.1l.8,.8h.1q.1,0,.2,0l4.2,-4.2l1.1,1.1c.1,.1,.2,.1,.3,.1c.1,0,.2,0,.3,-.1c.1,-.1,.1,-.2,.1,-.3v-3.3c0,-.1,0,-.2,-.1,-.3Z" class="g2_1" />
<path d="M618.4,917.5H618c0,0,-.1,0,-.1,0q-.1,.1,-.1,.2v2.1c0,.3,-.1,.5,-.3,.7c-.2,.2,-.4,.3,-.7,.3h-5.4c-.3,0,-.5,-.1,-.7,-.3c-.2,-.2,-.3,-.5,-.3,-.7v-5.4c0,-.3,.1,-.6,.3,-.7c.2,-.3,.4,-.3,.7,-.3H616c0,0,.1,-.1,.1,-.1c0,0,.1,-.1,.1,-.2v-.4c0,0,0,-.1,-.1,-.1c0,0,-.1,-.1,-.1,-.1h-4.6c-.5,0,-.9,.2,-1.3,.6c-.4,.3,-.5,.8,-.5,1.3v5.3c0,.6,.2,1,.5,1.4c.4,.3,.8,.5,1.3,.5h5.4c.5,0,.9,-.2,1.3,-.5c.4,-.4,.5,-.8,.5,-1.4v-2q0,-.1,0,-.2q-.1,0,-.2,0Z" class="g2_1" />
<path d="M621,911.8c-.1,0,-.2,-.1,-.3,-.1h-3.3c-.1,0,-.2,.1,-.3,.1c-.1,.1,-.1,.2,-.1,.3c0,.1,0,.2,.1,.3l1.1,1.1l-4.2,4.2q0,.1,0,.2q0,.1,0,.2l.8,.7q0,.1,.1,.1c.1,0,.1,-.1,.2,-.1l4.2,-4.2l1.1,1.1c.1,.1,.2,.2,.3,.2c.1,0,.2,-.1,.3,-.2c.1,0,.1,-.2,.1,-.3v-3.3c0,-.1,0,-.2,-.1,-.3Z" class="g2_1" />
<path d="M617,948.2h-.4c0,0,-.1,0,-.1,.1q-.1,0,-.1,.1v2.1c0,.3,-.1,.5,-.3,.7c-.2,.2,-.4,.3,-.7,.3H610c-.3,0,-.5,-.1,-.7,-.3c-.2,-.2,-.3,-.4,-.3,-.7v-5.4c0,-.3,.1,-.5,.3,-.7c.2,-.2,.4,-.3,.7,-.3h4.6c0,0,.1,0,.1,-.1c0,0,.1,-.1,.1,-.1v-.4q0,-.1,-.1,-.2c0,0,-.1,-.1,-.1,-.1H610c-.5,0,-.9,.2,-1.3,.6c-.4,.4,-.5,.8,-.5,1.3v5.4c0,.5,.2,.9,.5,1.3c.4,.4,.8,.5,1.3,.5h5.4c.5,0,.9,-.2,1.3,-.5c.4,-.4,.5,-.8,.5,-1.3v-2.1c0,0,0,-.1,0,-.2q-.1,0,-.2,0Z" class="g2_1" />
<path d="M619.6,942.6c-.1,-.1,-.2,-.2,-.3,-.2H616c-.1,0,-.2,.1,-.3,.2c-.1,0,-.1,.1,-.1,.2c0,.2,0,.3,.1,.3l1.1,1.2l-4.2,4.2c0,0,0,.1,0,.1q0,.1,0,.2l.8,.7c0,.1,.1,.1,.1,.1q.1,0,.2,-.1l4.2,-4.2l1.1,1.1c.1,.1,.2,.2,.3,.2c.1,0,.2,-.1,.3,-.2c.1,0,.1,-.1,.1,-.2v-3.4c0,-.1,0,-.2,-.1,-.2Z" class="g2_1" />
<path d="M570.6,978.9h-.4q-.1,0,-.2,.1c0,0,0,.1,0,.1v2.1c0,.3,-.1,.5,-.3,.7c-.2,.2,-.5,.3,-.7,.3h-5.4c-.3,0,-.6,-.1,-.7,-.3c-.3,-.2,-.3,-.4,-.3,-.7v-5.4c0,-.3,.1,-.5,.3,-.7c.2,-.2,.4,-.3,.7,-.3h4.5q.1,0,.2,0q0,-.1,0,-.2v-.4q0,-.1,0,-.2c0,0,-.1,0,-.2,0h-4.5c-.5,0,-.9,.2,-1.3,.5c-.4,.4,-.6,.8,-.6,1.3v5.4c0,.5,.2,.9,.6,1.3c.4,.4,.8,.5,1.3,.5H569c.5,0,.9,-.1,1.3,-.5c.4,-.4,.5,-.8,.5,-1.3v-2.1c0,0,0,-.1,0,-.1q-.1,-.1,-.2,-.1Z" class="g2_1" />
<path d="M573.2,973.3c-.1,-.1,-.2,-.2,-.3,-.2h-3.3c-.2,0,-.3,.1,-.3,.2c-.1,.1,-.2,.2,-.2,.3c0,.1,.1,.2,.2,.3l1.1,1.1l-4.2,4.2q0,.1,0,.2c0,0,0,.1,0,.1l.7,.7q.1,.1,.2,.1q.1,0,.2,-.1l4.2,-4.2l1.1,1.2c.1,.1,.2,.1,.3,.1c.1,0,.2,-.1,.3,-.1c0,-.1,.1,-.2,.1,-.3v-3.3c0,-.2,-.1,-.2,-.1,-.3Z" class="g2_1" />
<path fill-rule="evenodd" d="M630.9,1052.6h.3c4.1,0,7.4,3.3,7.4,7.4v.3c0,4.1,-3.3,7.3,-7.4,7.3h-.3c-4.1,0,-7.4,-3.2,-7.4,-7.3v-.3c0,-4.1,3.3,-7.4,7.4,-7.4Z" class="g2_1" />
<path fill-rule="evenodd" d="M659.5,1052.6h.4c4,0,7.3,3.3,7.3,7.4v.3c0,4.1,-3.3,7.3,-7.3,7.3h-.4c-4,0,-7.3,-3.2,-7.3,-7.3v-.3c0,-4.1,3.3,-7.4,7.3,-7.4Z" class="g2_1" />
<path fill-rule="evenodd" d="M688.1,1052.6h.4c4,0,7.3,3.3,7.3,7.4v.3c0,4.1,-3.3,7.3,-7.3,7.3h-.4c-4,0,-7.3,-3.2,-7.3,-7.3v-.3c0,-4.1,3.3,-7.4,7.3,-7.4Z" class="g2_1" />
<path fill-rule="evenodd" d="M716.8,1052.6h.3c4.1,0,7.3,3.3,7.3,7.4v.3c0,4.1,-3.2,7.3,-7.3,7.3h-.3c-4.1,0,-7.4,-3.2,-7.4,-7.3v-.3c0,-4.1,3.3,-7.4,7.4,-7.4Z" class="g2_1" />
<path fill-rule="evenodd" d="M745.4,1053.3h.3c3.7,0,6.7,3,6.7,6.7v.3c0,3.7,-3,6.6,-6.7,6.6h-.3c-3.7,0,-6.6,-2.9,-6.6,-6.6v-.3c0,-3.7,2.9,-6.7,6.6,-6.7Z" class="g0_1" />
<path fill-rule="evenodd" d="M745.4,1052.6h.3c4.1,0,7.4,3.3,7.4,7.4v.3c0,4.1,-3.3,7.3,-7.4,7.3h-.3c-4.1,0,-7.3,-3.2,-7.3,-7.3v-.3c0,-4.1,3.2,-7.4,7.3,-7.4Zm0,1.4h.3c3.3,0,6,2.7,6,6v.3c0,3.3,-2.7,5.9,-6,5.9h-.3c-3.3,0,-5.9,-2.6,-5.9,-5.9v-.3c0,-3.3,2.6,-6,5.9,-6Z" class="g2_1" />
<path fill-rule="evenodd" d="M630.9,1084.4h.3c4.1,0,7.4,3.3,7.4,7.3v.4c0,4,-3.3,7.3,-7.4,7.3h-.3c-4.1,0,-7.4,-3.3,-7.4,-7.3v-.4c0,-4,3.3,-7.3,7.4,-7.3Z" class="g2_1" />
<path fill-rule="evenodd" d="M659.5,1084.4h.4c4,0,7.3,3.3,7.3,7.3v.4c0,4,-3.3,7.3,-7.3,7.3h-.4c-4,0,-7.3,-3.3,-7.3,-7.3v-.4c0,-4,3.3,-7.3,7.3,-7.3Z" class="g2_1" />
<path fill-rule="evenodd" d="M688.1,1084.4h.4c4,0,7.3,3.3,7.3,7.3v.4c0,4,-3.3,7.3,-7.3,7.3h-.4c-4,0,-7.3,-3.3,-7.3,-7.3v-.4c0,-4,3.3,-7.3,7.3,-7.3Z" class="g2_1" />
<path fill-rule="evenodd" d="M716.8,1084.4h.3c4.1,0,7.3,3.3,7.3,7.3v.4c0,4,-3.2,7.3,-7.3,7.3h-.3c-4.1,0,-7.4,-3.3,-7.4,-7.3v-.4c0,-4,3.3,-7.3,7.4,-7.3Z" class="g2_1" />
<path fill-rule="evenodd" d="M745.4,1085.1h.3c3.7,0,6.7,3,6.7,6.6v.4c0,3.6,-3,6.6,-6.7,6.6h-.3c-3.7,0,-6.6,-3,-6.6,-6.6v-.4c0,-3.6,2.9,-6.6,6.6,-6.6Z" class="g0_1" />
<path fill-rule="evenodd" d="M745.4,1084.4h.3c4.1,0,7.4,3.3,7.4,7.3v.4c0,4,-3.3,7.3,-7.4,7.3h-.3c-4.1,0,-7.3,-3.3,-7.3,-7.3v-.4c0,-4,3.2,-7.3,7.3,-7.3Zm0,1.4h.3c3.3,0,6,2.7,6,5.9v.4c0,3.3,-2.7,5.9,-6,5.9h-.3c-3.3,0,-5.9,-2.6,-5.9,-5.9v-.4c0,-3.2,2.6,-5.9,5.9,-5.9Z" class="g2_1" />
<path fill-rule="evenodd" d="M630.9,1116.2h.3c4.1,0,7.4,3.3,7.4,7.3v.4c0,4,-3.3,7.3,-7.4,7.3h-.3c-4.1,0,-7.4,-3.3,-7.4,-7.3v-.4c0,-4,3.3,-7.3,7.4,-7.3Z" class="g2_1" />
<path fill-rule="evenodd" d="M659.5,1116.2h.4c4,0,7.3,3.3,7.3,7.3v.4c0,4,-3.3,7.3,-7.3,7.3h-.4c-4,0,-7.3,-3.3,-7.3,-7.3v-.4c0,-4,3.3,-7.3,7.3,-7.3Z" class="g2_1" />
<path fill-rule="evenodd" d="M688.1,1116.2h.4c4,0,7.3,3.3,7.3,7.3v.4c0,4,-3.3,7.3,-7.3,7.3h-.4c-4,0,-7.3,-3.3,-7.3,-7.3v-.4c0,-4,3.3,-7.3,7.3,-7.3Z" class="g2_1" />
<path fill-rule="evenodd" d="M716.8,1116.9h.3c3.7,0,6.7,2.9,6.7,6.6v.4c0,3.6,-3,6.6,-6.7,6.6h-.3c-3.7,0,-6.7,-3,-6.7,-6.6v-.4c0,-3.7,3,-6.6,6.7,-6.6Z" class="g0_1" />
<path fill-rule="evenodd" d="M716.8,1116.2h.3c4.1,0,7.3,3.3,7.3,7.3v.4c0,4,-3.2,7.3,-7.3,7.3h-.3c-4.1,0,-7.4,-3.3,-7.4,-7.3v-.4c0,-4,3.3,-7.3,7.4,-7.3Zm0,1.4h.3c3.3,0,6,2.6,6,5.9v.4c0,3.2,-2.7,5.9,-6,5.9h-.3c-3.3,0,-6,-2.7,-6,-5.9v-.4c0,-3.3,2.7,-5.9,6,-5.9Z" class="g2_1" />
<path fill-rule="evenodd" d="M745.4,1116.9h.3c3.7,0,6.7,2.9,6.7,6.6v.4c0,3.6,-3,6.6,-6.7,6.6h-.3c-3.7,0,-6.6,-3,-6.6,-6.6v-.4c0,-3.7,2.9,-6.6,6.6,-6.6Z" class="g0_1" />
<path fill-rule="evenodd" d="M745.4,1116.2h.3c4.1,0,7.4,3.3,7.4,7.3v.4c0,4,-3.3,7.3,-7.4,7.3h-.3c-4.1,0,-7.3,-3.3,-7.3,-7.3v-.4c0,-4,3.2,-7.3,7.3,-7.3Zm0,1.4h.3c3.3,0,6,2.6,6,5.9v.4c0,3.2,-2.7,5.9,-6,5.9h-.3c-3.3,0,-5.9,-2.7,-5.9,-5.9v-.4c0,-3.3,2.6,-5.9,5.9,-5.9Z" class="g2_1" />
<path fill-rule="evenodd" d="M486.3,1190.9h91.2c2.5,0,4.5,2,4.5,4.5V1215c0,2.5,-2,4.5,-4.5,4.5H486.3c-2.5,0,-4.5,-2,-4.5,-4.5v-19.6c0,-2.5,2,-4.5,4.5,-4.5Zm0,1.4h91.2c1.7,0,3.1,1.4,3.1,3.1V1215c0,1.7,-1.4,3.1,-3.1,3.1H486.3c-1.7,0,-3.1,-1.4,-3.1,-3.1v-19.6c0,-1.7,1.4,-3.1,3.1,-3.1Z" class="g3_1" />
<path fill-rule="evenodd" d="M593.9,1190.9H696.2c2.5,0,4.5,2,4.5,4.5V1215c0,2.5,-2,4.5,-4.5,4.5H593.9c-2.5,0,-4.6,-2,-4.6,-4.5v-19.6c0,-2.5,2.1,-4.5,4.6,-4.5Zm0,1.4H696.2c1.7,0,3.1,1.4,3.1,3.1V1215c0,1.7,-1.4,3.1,-3.1,3.1H593.9c-1.8,0,-3.2,-1.4,-3.2,-3.1v-19.6c0,-1.7,1.4,-3.1,3.2,-3.1Z" class="g3_1" />
<path fill-rule="evenodd" d="M712.6,1190.9h82.7c2.5,0,4.6,2,4.6,4.5V1215c0,2.5,-2.1,4.5,-4.6,4.5H712.6c-2.5,0,-4.6,-2,-4.6,-4.5v-19.6c0,-2.5,2.1,-4.5,4.6,-4.5Zm0,1.4h82.7c1.8,0,3.2,1.4,3.2,3.1V1215c0,1.7,-1.4,3.1,-3.2,3.1H712.6c-1.8,0,-3.2,-1.4,-3.2,-3.1v-19.6c0,-1.7,1.4,-3.1,3.2,-3.1Z" class="g3_1" />
</svg>